<?xml version="1.0" encoding="UTF-8" standalone="no"?>
<!-- Created with Inkscape (http://www.inkscape.org/) -->

<svg
   xmlns:dc="http://purl.org/dc/elements/1.1/"
   xmlns:cc="http://creativecommons.org/ns#"
   xmlns:rdf="http://www.w3.org/1999/02/22-rdf-syntax-ns#"
   xmlns:svg="http://www.w3.org/2000/svg"
   xmlns="http://www.w3.org/2000/svg"
   xmlns:sodipodi="http://sodipodi.sourceforge.net/DTD/sodipodi-0.dtd"
   xmlns:inkscape="http://www.inkscape.org/namespaces/inkscape"
   width="640.25696"
   height="639.76355"
   id="svg2"
   version="1.1"
   inkscape:version="0.48.5 r10040"
   sodipodi:docname="Cooperative Development Authority (CDA).svg">
  <title
     id="title14808">Cooperative Development Authority (CDA)</title>
  <defs
     id="defs4" />
  <sodipodi:namedview
     id="base"
     pagecolor="#ffffff"
     bordercolor="#666666"
     borderopacity="1.0"
     inkscape:pageopacity="0.0"
     inkscape:pageshadow="2"
     inkscape:zoom="0.79687498"
     inkscape:cx="430.26692"
     inkscape:cy="319.81485"
     inkscape:document-units="px"
     inkscape:current-layer="layer1"
     showgrid="false"
     inkscape:snap-object-midpoints="true"
     inkscape:snap-center="true"
     inkscape:snap-bbox="false"
     inkscape:bbox-paths="true"
     inkscape:bbox-nodes="true"
     inkscape:snap-bbox-edge-midpoints="true"
     inkscape:snap-bbox-midpoints="true"
     inkscape:object-paths="false"
     inkscape:snap-intersection-paths="true"
     inkscape:object-nodes="false"
     inkscape:snap-smooth-nodes="false"
     inkscape:snap-midpoints="false"
     fit-margin-top="0"
     fit-margin-left="0"
     fit-margin-right="0"
     fit-margin-bottom="0"
     inkscape:window-width="1366"
     inkscape:window-height="705"
     inkscape:window-x="-8"
     inkscape:window-y="-8"
     inkscape:window-maximized="1" />
  <metadata
     id="metadata7">
    <rdf:RDF>
      <cc:Work
         rdf:about="">
        <dc:format>image/svg+xml</dc:format>
        <dc:type
           rdf:resource="http://purl.org/dc/dcmitype/StillImage" />
        <dc:title>Cooperative Development Authority (CDA)</dc:title>
      </cc:Work>
    </rdf:RDF>
  </metadata>
  <g
     inkscape:label="Layer 1"
     inkscape:groupmode="layer"
     id="layer1"
     transform="translate(2764.6113,-905.00902)">
    <path
       sodipodi:type="arc"
       style="color:#000000;fill:#ffffff;fill-opacity:1;fill-rule:nonzero;stroke:#000000;stroke-width:2.85205507;stroke-linecap:butt;stroke-linejoin:miter;stroke-miterlimit:4;stroke-opacity:1;stroke-dasharray:none;stroke-dashoffset:0;marker:none;visibility:visible;display:inline;overflow:visible;enable-background:accumulate"
       id="path14882"
       sodipodi:cx="-489.81705"
       sodipodi:cy="196.32515"
       sodipodi:rx="145.52534"
       sodipodi:ry="157.94824"
       d="m -344.2917,196.32515 a 145.52534,157.94824 0 1 1 -291.05069,0 145.52534,157.94824 0 1 1 291.05069,0 z"
       transform="matrix(2.1784395,0,0,2.0071013,-1377.4219,830.87172)" />
    <g
       id="g14884"
       transform="translate(3.5506535,7.0987896)">
      <path
         transform="matrix(86.794746,0,0,0.6999576,-35028.558,848.28058)"
         d="m 378.13477,527.94171 c 0,189.02131 -1.23574,342.25336 -2.76011,342.25336 -1.52436,0 -2.7601,-153.23205 -2.7601,-342.25336 0,-189.02131 1.23574,-342.25336 2.7601,-342.25336 1.52437,0 2.76011,153.23205 2.76011,342.25336 z"
         sodipodi:ry="342.25336"
         sodipodi:rx="2.7601078"
         sodipodi:cy="527.94171"
         sodipodi:cx="375.37466"
         id="path14036"
         style="color:#000000;fill:#0000ff;fill-opacity:1;fill-rule:nonzero;stroke:none;stroke-width:1;marker:none;visibility:visible;display:inline;overflow:visible;enable-background:accumulate"
         sodipodi:type="arc" />
      <path
         style="fill:#fcd116;stroke:#000000;stroke-opacity:1"
         d="m -2447.5425,1000.0987 -13.5502,13.5502 6.72,102.6315 c -2.2848,0.1477 -4.5464,0.3684 -6.7888,0.6609 l -12.3384,-93.6531 -11.0577,11.0577 16.6486,83.7109 c -13.6947,2.7097 -26.423,8.0892 -37.621,15.5881 l -47.4118,-70.9593 -15.6433,0 57.5056,74.9528 c -1.8044,1.3871 -3.552,2.838 -5.2604,4.3377 l -67.8334,-77.3489 -19.1685,0 0,19.1686 77.3488,67.8334 c -1.5013,1.7104 -2.9492,3.4674 -4.3377,5.2741 l -74.9528,-57.5193 0,15.6432 70.9731,47.4256 c -7.4967,11.196 -12.8927,23.9157 -15.6019,37.6072 l -83.7108,-16.6485 -11.0578,11.0577 93.6532,12.3383 c -0.2924,2.2429 -0.5134,4.5047 -0.661,6.7889 l -102.6315,-6.72 -13.5502,13.5502 13.5502,13.5501 102.6315,-6.72 c 0.1477,2.2855 0.3684,4.5597 0.661,6.8026 l -93.6532,12.3246 11.0578,11.0577 83.7108,-16.6485 c 2.7093,13.694 8.0881,26.4207 15.5882,37.621 l -70.9594,47.4118 0,15.6433 74.9528,-57.5056 c 1.3872,1.805 2.8381,3.5513 4.3377,5.2603 l -77.3488,67.8335 0,19.1685 19.1685,0 67.8334,-77.3489 c 1.711,1.5024 3.4672,2.948 5.2741,4.3377 l -57.5193,74.9528 15.6433,0 47.4255,-70.9731 c 11.1933,7.5033 23.9143,12.9066 37.6073,15.6158 l -16.6486,83.697 11.0577,11.0577 12.3384,-93.6531 c 2.2415,0.2921 4.504,0.5132 6.7888,0.661 l -6.72,102.6315 13.5502,13.5501 13.5502,-13.5501 -6.72,-102.6315 c 2.2848,-0.1478 4.5464,-0.3684 6.7888,-0.661 l 12.3384,93.6531 11.0577,-11.0577 -16.6485,-83.7108 c 13.6947,-2.7098 26.4229,-8.0893 37.621,-15.5882 l 47.4118,70.9593 15.6432,0 -57.5055,-74.9528 c 1.8043,-1.3871 3.5519,-2.838 5.2603,-4.3377 l 67.8334,77.3489 19.1685,0 0,-19.1685 -77.3488,-67.8335 c 1.5013,-1.7104 2.9492,-3.4674 4.3377,-5.2741 l 74.9528,57.5194 0,-15.6433 -70.9731,-47.4256 c 7.4967,-11.196 12.8927,-23.9157 15.6019,-37.6072 l 83.7109,16.6485 11.0577,-11.0577 -93.6531,-12.3383 c 0.2924,-2.2429 0.5133,-4.5047 0.661,-6.7889 l 102.6314,6.72 13.5502,-13.5501 -13.5502,-13.5502 -102.6314,6.72 c -0.1478,-2.2848 -0.3685,-4.5464 -0.661,-6.7889 l 93.6531,-12.3383 -11.0577,-11.0577 -83.7109,16.6485 c -2.7097,-13.6947 -8.0892,-26.423 -15.5882,-37.621 l 70.9594,-47.4118 0,-15.6432 -74.9528,57.5055 c -1.3872,-1.8043 -2.838,-3.552 -4.3377,-5.2603 l 77.3488,-67.8334 0,-19.1686 -19.1685,0 -67.8334,77.3489 c -1.7105,-1.5013 -3.4675,-2.9493 -5.2741,-4.3377 l 57.5193,-74.9528 -15.6432,0 -47.4256,70.9731 c -11.1961,-7.4967 -23.9157,-12.8928 -37.6072,-15.6019 l 16.6485,-83.7109 -11.0577,-11.0577 -12.3384,93.6531 c -2.2428,-0.2923 -4.5047,-0.5133 -6.7888,-0.6609 l 6.72,-102.6315 -13.5502,-13.5502 z"
         id="circle3059-2"
         inkscape:connector-curvature="0" />
      <path
         sodipodi:nodetypes="cccc"
         inkscape:connector-curvature="0"
         id="path13919"
         d="m -2262.653,1328.331 -367.2131,0 181.758,-314.0548 z"
         inkscape:transform-center-y="-127.0748"
         inkscape:transform-center-x="-45.164499"
         style="color:#000000;fill:#ce1126;fill-opacity:1;stroke:#ce1126;stroke-width:0.69945359;stroke-linecap:butt;stroke-linejoin:miter;stroke-miterlimit:4;stroke-opacity:1;stroke-dasharray:none;stroke-dashoffset:0;marker:none;visibility:visible;display:inline;overflow:visible;enable-background:accumulate" />
      <path
         sodipodi:nodetypes="ccccccc"
         inkscape:connector-curvature="0"
         id="path13924"
         d="m -2561.1669,1256.7566 27.0279,48.747 174.2337,0 27.5106,-48.747 -84.4623,-149.6187 -60.8129,0 z"
         style="fill:#ffffff;stroke:none" />
      <path
         sodipodi:nodetypes="cccccccccc"
         inkscape:connector-curvature="0"
         id="path13725"
         d="m -2483.7029,1146.2318 36.1803,74.256 34.768,-74.256 52.1253,89.7713 -67.5698,0 33.3023,56.9516 -104.2507,0 36.4395,-56.9516 -72.8789,0 z"
         style="fill:#ce1126;fill-opacity:1;stroke:none" />
      <path
         sodipodi:nodetypes="ccc"
         inkscape:connector-curvature="0"
         id="path13897"
         d="m -2525.6712,1175.7149 77.663,45.7835 76.254,-45.1009"
         style="fill:none;stroke:#ce1126;stroke-width:3.49726796;stroke-linecap:round;stroke-linejoin:round;stroke-miterlimit:4;stroke-opacity:1;stroke-dasharray:none" />
      <path
         sodipodi:nodetypes="cc"
         inkscape:connector-curvature="0"
         id="path13899"
         d="m -2448.0082,1221.4986 0,88.3391"
         style="fill:none;stroke:#ce1126;stroke-width:3.49726796;stroke-linecap:round;stroke-linejoin:round;stroke-miterlimit:4;stroke-opacity:1;stroke-dasharray:none" />
      <path
         inkscape:connector-curvature="0"
         id="rect13754"
         d="m -2425.8442,1143.8809 -7.4973,15.5847 c -4.7351,-1.1601 -9.6837,-1.7704 -14.776,-1.7704 -5.0349,0 -9.9149,0.614 -14.6011,1.7486 l -7.4754,-15.541 -23.8907,11.4973 7.541,15.6721 c -7.6569,6.073 -13.8537,13.9271 -17.9453,22.929 l -17.2241,-3.9345 -5.9016,25.858 17.6175,4.0218 c 0.056,9.9563 2.4815,19.3573 6.7103,27.6721 l -14.4699,11.541 16.5464,20.7213 14.7323,-11.7377 c 7.2598,5.7442 15.8318,9.9062 25.2022,11.9345 l 0,19.0382 26.5355,0 0,-19.0819 c 9.3375,-2.0576 17.8827,-6.2307 25.1147,-11.9782 l 14.8197,11.8251 16.5465,-20.7431 -14.6011,-11.6284 c 4.1949,-8.2787 6.5829,-17.6176 6.6448,-27.5192 l 17.8142,-4.0655 -5.9016,-25.858 -17.4208,3.9563 c -4.0691,-8.9608 -10.2133,-16.7752 -17.8142,-22.8415 l 7.5847,-15.7814 -23.8907,-11.5192 z"
         style="color:#000000;fill:#fcd116;fill-opacity:1;stroke:#ce1126;stroke-width:1.39890718;stroke-linecap:butt;stroke-linejoin:miter;stroke-miterlimit:4;stroke-opacity:1;stroke-dasharray:none;stroke-dashoffset:0;marker:none;visibility:visible;display:inline;overflow:visible;enable-background:accumulate" />
      <path
         transform="matrix(0.76968242,0,0,0.67065887,-2750.4,870.57411)"
         d="m 429.85992,521.74622 c 0,23.03988 -16.27456,41.71739 -36.35025,41.71739 -20.07568,0 -36.35024,-18.67751 -36.35024,-41.71739 0,-23.03989 16.27456,-41.7174 36.35024,-41.7174 20.07569,0 36.35025,18.67751 36.35025,41.7174 z"
         sodipodi:ry="41.717396"
         sodipodi:rx="36.350243"
         sodipodi:cy="521.74622"
         sodipodi:cx="393.50967"
         id="path2996"
         style="color:#000000;fill:#ce1126;fill-opacity:1;stroke:none;stroke-width:0.09972965;marker:none;visibility:visible;display:inline;overflow:visible;enable-background:accumulate"
         sodipodi:type="arc" />
      <path
         transform="matrix(1.3376383,0,0,0.79950789,-2846.4145,797.73071)"
         d="m 215.66185,626.6496 c 0,11.72204 -5.67971,21.22464 -12.68599,21.22464 -7.00628,0 -12.68599,-9.5026 -12.68599,-21.22464 0,-11.72205 5.67971,-21.22464 12.68599,-21.22464 7.00628,0 12.68599,9.50259 12.68599,21.22464 z"
         sodipodi:ry="21.22464"
         sodipodi:rx="12.685991"
         sodipodi:cy="626.6496"
         sodipodi:cx="202.97586"
         id="path13926"
         style="color:#000000;fill:#ffffff;stroke:none;stroke-width:1;marker:none;visibility:visible;display:inline;overflow:visible;enable-background:accumulate"
         sodipodi:type="arc" />
      <path
         transform="matrix(1.3376383,0,0,0.79950789,-2590.4888,797.73078)"
         d="m 215.66185,626.6496 c 0,11.72204 -5.67971,21.22464 -12.68599,21.22464 -7.00628,0 -12.68599,-9.5026 -12.68599,-21.22464 0,-11.72205 5.67971,-21.22464 12.68599,-21.22464 7.00628,0 12.68599,9.50259 12.68599,21.22464 z"
         sodipodi:ry="21.22464"
         sodipodi:rx="12.685991"
         sodipodi:cy="626.6496"
         sodipodi:cx="202.97586"
         id="path13926-1"
         style="color:#000000;fill:#ffffff;stroke:none;stroke-width:1;marker:none;visibility:visible;display:inline;overflow:visible;enable-background:accumulate"
         sodipodi:type="arc" />
      <path
         transform="matrix(1.3376383,0,0,0.79950789,-2719.353,569.34725)"
         d="m 215.66185,626.6496 c 0,11.72204 -5.67971,21.22464 -12.68599,21.22464 -7.00628,0 -12.68599,-9.5026 -12.68599,-21.22464 0,-11.72205 5.67971,-21.22464 12.68599,-21.22464 7.00628,0 12.68599,9.50259 12.68599,21.22464 z"
         sodipodi:ry="21.22464"
         sodipodi:rx="12.685991"
         sodipodi:cy="626.6496"
         sodipodi:cx="202.97586"
         id="path13926-5"
         style="color:#000000;fill:#ffffff;stroke:none;stroke-width:1;marker:none;visibility:visible;display:inline;overflow:visible;enable-background:accumulate"
         sodipodi:type="arc" />
      <path
         transform="matrix(-0.15881409,-0.54174086,-0.54174086,0.15881409,-1990.6593,1055.6436)"
         inkscape:transform-center-y="-0.67891286"
         inkscape:transform-center-x="2.6965147"
         d="m 38.545896,370.24619 -29.6761613,10.76182 1.0622652,31.54937 -19.4055324,-24.89812 -29.6769765,10.75956 17.682882,-26.1497 -19.403645,-24.89959 30.334155,8.73672 17.6848643,-26.14837 1.0646559,31.5493 z"
         inkscape:randomized="0"
         inkscape:rounded="0"
         inkscape:flatsided="false"
         sodipodi:arg2="0.59462342"
         sodipodi:arg1="-0.033695107"
         sodipodi:r2="16.59782"
         sodipodi:r1="43.449787"
         sodipodi:cy="371.70996"
         sodipodi:cx="-4.8792276"
         sodipodi:sides="5"
         id="path14040-7"
         style="color:#000000;fill:#fcd116;fill-opacity:1;fill-rule:nonzero;stroke:#000000;stroke-width:1.77135456;stroke-miterlimit:4;stroke-opacity:1;stroke-dasharray:none;marker:none;visibility:visible;display:inline;overflow:visible;enable-background:accumulate"
         sodipodi:type="star" />
      <path
         sodipodi:open="true"
         sodipodi:end="9.8564416"
         sodipodi:start="5.8280915"
         transform="matrix(-10.789562,0,0,0.70257614,1552.9913,840.45265)"
         d="m 395.36395,352.67608 c 6.63296,208.159 1.02191,459.48167 -12.53263,561.34491 -13.55454,101.86321 -29.91974,15.69349 -36.5527,-192.4655 -3.60931,-113.26953 -3.71016,-245.46161 -0.27463,-359.99864"
         sodipodi:ry="419.61356"
         sodipodi:rx="27.323673"
         sodipodi:cy="537.11578"
         sodipodi:cx="370.82129"
         id="path14060"
         style="color:#000000;fill:none;stroke:none;stroke-width:0.51478225;marker:none;visibility:visible;display:inline;overflow:visible;enable-background:accumulate"
         sodipodi:type="arc" />
      <path
         transform="matrix(0.15881409,-0.54174086,0.54174086,0.15881409,-2906.2577,1055.6436)"
         inkscape:transform-center-y="-0.67891449"
         inkscape:transform-center-x="-2.6965142"
         d="m 38.545896,370.24619 -29.6761613,10.76182 1.0622652,31.54937 -19.4055324,-24.89812 -29.6769765,10.75956 17.682882,-26.1497 -19.403645,-24.89959 30.334155,8.73672 17.6848643,-26.14837 1.0646559,31.5493 z"
         inkscape:randomized="0"
         inkscape:rounded="0"
         inkscape:flatsided="false"
         sodipodi:arg2="0.59462342"
         sodipodi:arg1="-0.033695107"
         sodipodi:r2="16.59782"
         sodipodi:r1="43.449787"
         sodipodi:cy="371.70996"
         sodipodi:cx="-4.8792276"
         sodipodi:sides="5"
         id="path14040-7-6"
         style="color:#000000;fill:#fcd116;fill-opacity:1;fill-rule:nonzero;stroke:#000000;stroke-width:1.77135456;stroke-miterlimit:4;stroke-opacity:1;stroke-dasharray:none;marker:none;visibility:visible;display:inline;overflow:visible;enable-background:accumulate"
         sodipodi:type="star" />
      <path
         sodipodi:open="true"
         sodipodi:end="5.9370793"
         sodipodi:start="3.4993363"
         transform="matrix(9.5765343,0,0,0.62358828,-5999.191,882.87828)"
         d="m 345.2275,390.18322 c 5.28409,-217.07416 21.02643,-327.263577 35.16149,-246.11496 7.51418,43.1385 13.41432,134.80841 16.1357,250.69895"
         sodipodi:ry="419.61356"
         sodipodi:rx="27.323673"
         sodipodi:cy="537.11578"
         sodipodi:cx="370.82129"
         id="path14060-1"
         style="color:#000000;fill:none;stroke:none;stroke-width:0.51478225;marker:none;visibility:visible;display:inline;overflow:visible;enable-background:accumulate"
         sodipodi:type="arc" />
      <g
         transform="matrix(0.69945357,0,0,0.69945357,-2710.3033,845.45476)"
         id="text14098"
         style="font-size:68px;font-style:normal;font-variant:normal;font-weight:normal;font-stretch:normal;text-align:center;line-height:125%;letter-spacing:3px;word-spacing:2px;writing-mode:lr-tb;text-anchor:middle;fill:#000000;fill-opacity:1;stroke:none;font-family:Swiss 721;-inkscape-font-specification:'Swiss 721,'">
        <path
           id="path14323"
           style="font-size:72px;letter-spacing:2.5px;word-spacing:0px"
           d="m 20.578649,293.63819 c -4.263012,6.46589 -5.638904,12.83968 -4.127678,19.12139 1.511291,6.28178 5.814815,11.85455 12.910586,16.71833 7.181186,4.73686 13.965643,6.62027 20.35339,5.65026 6.387747,-0.97 11.771642,-4.64858 16.151704,-11.03576 4.259289,-6.46832 5.627712,-12.84713 4.105273,-19.13645 -1.522481,-6.28924 -5.818537,-11.85699 -12.888181,-16.70327 -7.155036,-4.7192 -13.932025,-6.5976 -20.330986,-5.63519 -6.398937,0.96253 -11.7903,4.63609 -16.174108,11.02069 z m 6.213658,4.17841 c 2.826406,-4.14388 6.436668,-6.43754 10.830796,-6.88098 4.394151,-0.44333 9.247158,1.09205 14.559036,4.60617 5.232162,3.5763 8.477315,7.48657 9.735468,11.73083 1.258128,4.24434 0.503257,8.45813 -2.264613,12.64138 -2.83013,4.14145 -6.447861,6.43009 -10.853204,6.86592 -4.405342,0.43587 -9.250881,-1.09449 -14.536629,-4.5911 -5.255777,-3.59754 -8.503377,-7.5203 -9.742808,-11.76831 -1.239382,-4.24794 -0.482065,-8.44923 2.271954,-12.60391 z"
           inkscape:connector-curvature="0" />
        <path
           id="path14325"
           style="font-size:72px;letter-spacing:2.5px;word-spacing:0px"
           d="m 56.377905,249.12671 c -0.671098,0.61897 -1.308663,1.21913 -1.912696,1.80049 -0.603977,0.58144 -1.130556,1.13404 -1.579738,1.6578 -2.114404,2.49636 -3.069323,4.88333 -2.864761,7.16092 0.204628,2.27767 1.558166,4.47238 4.060619,6.58414 l 3.57246,3.02314 -3.767296,4.45183 4.561756,3.86032 3.767296,-4.45184 24.402647,20.65037 5.162591,-6.10067 -24.402647,-20.65036 4.278904,-5.0564 -4.561756,-3.86032 -4.278904,5.05641 -2.198437,-1.8604 c -1.280728,-1.02679 -2.033783,-1.96666 -2.259169,-2.81961 -0.225337,-0.85287 0.176893,-1.87618 1.206691,-3.06995 0.0018,-0.004 0.06803,-0.078 0.198724,-0.2209 0.130743,-0.14281 0.31537,-0.32848 0.553884,-0.557 l 1.226158,-1.22604 z"
           inkscape:connector-curvature="0" />
        <path
           id="path14327"
           style="font-size:72px;letter-spacing:2.5px;word-spacing:0px"
           d="m 74.654005,229.82994 c -0.708589,0.57567 -1.38253,1.13467 -2.021826,1.677 -0.639247,0.54244 -1.199439,1.06093 -1.680577,1.55549 -2.266771,2.35888 -3.369479,4.68128 -3.308129,6.96721 0.06141,2.28602 1.274673,4.56128 3.639791,6.82579 l 3.375873,3.24119 -4.039022,4.20686 4.31073,4.13875 4.039022,-4.20686 23.059813,22.13983 5.53495,-5.76496 -23.059807,-22.13982 4.587532,-4.77816 -4.310731,-4.13875 -4.587531,4.77816 -2.07746,-1.99458 c -1.213826,-1.10508 -1.906468,-2.09032 -2.077928,-2.95572 -0.171418,-0.86532 0.294185,-1.8614 1.396808,-2.98824 0.0021,-0.004 0.07278,-0.0736 0.212184,-0.20801 0.13944,-0.13434 0.335346,-0.30806 0.587719,-0.52118 l 1.300621,-1.14674 z"
           inkscape:connector-curvature="0" />
        <path
           id="path14329"
           style="font-size:72px;letter-spacing:2.5px;word-spacing:0px"
           d="m 82.269935,222.90978 5.530681,5.96694 5.914134,-5.48173 -5.530682,-5.96694 z m 9.397264,10.13852 25.793531,27.82811 5.91413,-5.48174 -25.793528,-27.82811 z"
           inkscape:connector-curvature="0" />
        <path
           id="path14331"
           style="font-size:72px;letter-spacing:2.5px;word-spacing:0px"
           d="m 141.95953,207.87212 c -2.99547,-3.3255 -6.38926,-5.07413 -10.18139,-5.2459 -3.79214,-0.17167 -7.60299,1.22158 -11.43258,4.17975 -4.31389,3.44901 -6.59681,7.5177 -6.84877,12.20607 -0.25193,4.68843 1.58443,9.574 5.50909,14.6567 3.92746,4.90894 8.15236,7.82818 12.67471,8.75772 4.52235,0.92955 8.84934,-0.18997 12.98098,-3.35858 3.99572,-3.19351 6.34326,-6.7523 7.04263,-10.67638 0.69932,-3.92404 -0.26691,-7.8565 -2.89867,-11.79741 l -6.06007,4.75664 c 1.3121,2.27662 1.80541,4.40646 1.47992,6.38954 -0.32552,1.98313 -1.43945,3.727 -3.34181,5.23162 -2.36752,1.84496 -4.85999,2.38645 -7.47742,1.62447 -2.61744,-0.76195 -5.25724,-2.82782 -7.91938,-6.19762 -2.71004,-3.45992 -4.12116,-6.55502 -4.23338,-9.28531 -0.11221,-2.73022 1.06436,-5.0648 3.52972,-7.00375 1.87042,-1.44328 3.76243,-2.10841 5.67606,-1.99537 1.91361,0.11312 3.67041,0.99572 5.27038,2.64781 z"
           inkscape:connector-curvature="0" />
        <path
           id="path14333"
           style="font-size:72px;letter-spacing:2.5px;word-spacing:0px"
           d="m 174.07744,190.15736 -15.4932,9.57992 c -1.43352,-2.81178 -1.92925,-5.33049 -1.48718,-7.55613 0.44207,-2.22558 1.82627,-4.06554 4.15259,-5.51989 2.4413,-1.49362 4.76455,-1.94609 6.96975,-1.3574 2.20518,0.58877 4.15786,2.2066 5.85804,4.8535 z m 10.10945,0.60577 c -0.45869,-0.90148 -0.91011,-1.72281 -1.35427,-2.46401 -3.34867,-5.29581 -7.21599,-8.57263 -11.60196,-9.83047 -4.386,-1.25775 -8.85083,-0.50394 -13.3945,2.26141 -4.70077,2.96487 -7.45026,6.7495 -8.2485,11.35391 -0.79822,4.60447 0.45124,9.61991 3.74838,15.04634 3.44343,5.4577 7.40518,8.87012 11.88525,10.23727 4.48006,1.36717 9.03792,0.64403 13.67358,-2.16943 3.76086,-2.39424 6.30115,-5.39346 7.62088,-8.99769 1.31967,-3.60419 1.26657,-7.30659 -0.15931,-11.1072 l -6.79741,4.20305 c 0.58625,1.94073 0.54256,3.75247 -0.13109,5.43524 -0.67369,1.68281 -1.9328,3.10329 -3.77734,4.26146 -2.56507,1.5702 -5.04973,1.99549 -7.45399,1.27589 -2.40427,-0.71958 -4.58603,-2.57669 -6.54528,-5.57135 z"
           inkscape:connector-curvature="0" />
        <path
           id="path14335"
           style="font-size:72px;letter-spacing:2.5px;word-spacing:0px"
           d="m 222.77763,148.14685 c -5.41706,2.19701 -8.98679,5.52541 -10.70921,9.9852 -1.72241,4.45987 -1.4242,9.68233 0.89464,15.66741 2.41256,5.94475 5.77972,9.93799 10.1015,11.97972 4.32177,2.04175 9.20916,2.00542 14.66218,-0.10899 5.38719,-2.18674 8.94966,-5.50904 10.68742,-9.96688 1.73769,-4.45782 1.45559,-9.66408 -0.84632,-15.6188 -2.40209,-5.9182 -5.77036,-9.91422 -10.10483,-11.98808 -4.33451,-2.07377 -9.22963,-2.05696 -14.68538,0.0504 z m 2.61361,6.39912 c 3.09955,-1.21712 5.89241,-1.10744 8.37858,0.32903 2.48614,1.43655 4.542,4.18111 6.16756,8.2337 1.57934,4.03384 1.95411,7.42208 1.12431,10.16473 -0.82985,2.74269 -2.79039,4.73306 -5.88163,5.97112 -3.1322,1.22848 -5.94348,1.12933 -8.43384,-0.29745 -2.49038,-1.42676 -4.54128,-4.1507 -6.15271,-8.17182 -1.58186,-4.03603 -1.95827,-7.43653 -1.12921,-10.20152 0.82906,-2.76492 2.8047,-4.77418 5.92694,-6.02779 z"
           inkscape:connector-curvature="0" />
        <path
           id="path14337"
           style="font-size:72px;letter-spacing:2.5px;word-spacing:0px"
           d="m 264.97304,120.56784 c -0.9009,0.14787 -1.76346,0.29848 -2.58766,0.45181 -0.82421,0.15345 -1.56792,0.32537 -2.23112,0.51577 -3.13884,0.92207 -5.24913,2.39046 -6.33089,4.40517 -1.08174,2.01481 -1.15831,4.5922 -0.2297,7.73218 l 1.32104,4.48963 -5.59476,1.64621 1.68685,5.7329 5.59476,-1.64621 9.02368,30.66757 7.66689,-2.25592 -9.02367,-30.66757 6.35454,-1.86977 -1.68686,-5.7329 -6.35454,1.86977 -0.81294,-2.76285 c -0.50495,-1.56192 -0.61699,-2.76104 -0.33613,-3.59737 0.28085,-0.83623 1.17958,-1.46967 2.69618,-1.90033 0.004,-0.003 0.0997,-0.0277 0.28746,-0.0752 0.18774,-0.0474 0.44405,-0.1009 0.76893,-0.16058 l 1.69836,-0.34962 z"
           inkscape:connector-curvature="0" />
        <path
           id="path14339"
           style="font-size:72px;letter-spacing:2.5px;word-spacing:0px"
           d="m 301.74922,116.1863 1.69636,10.30112 -5.32817,0.87743 0.97101,5.8965 5.32817,-0.87742 3.79047,23.01769 c 0.45971,3.15165 1.43246,5.34774 2.91827,6.58828 1.4858,1.24054 3.84998,1.58394 7.09257,1.03021 0.81476,-0.13873 1.68067,-0.32694 2.59774,-0.56461 0.91704,-0.23766 1.89851,-0.49962 2.9444,-0.78587 l -1.04121,-6.32276 -1.55123,0.32842 c -0.2467,0.0437 -0.49636,0.097 -0.74898,0.15983 -0.25265,0.0629 -0.52007,0.11909 -0.80225,0.16859 -1.27806,0.22416 -2.17002,0.10653 -2.67587,-0.35288 -0.50587,-0.45939 -0.84305,-1.30685 -1.01154,-2.54239 l -3.62668,-22.0231 6.25172,-1.0295 -0.97102,-5.89651 -6.25172,1.02951 -1.69635,-10.30113 z"
           inkscape:connector-curvature="0" />
        <path
           id="path14341"
           style="font-size:72px;letter-spacing:2.5px;word-spacing:0px"
           d="m 328.58195,108.63581 3.69577,51.63525 8.04332,-0.5757 -1.60373,-22.40639 c -0.16331,-2.97487 0.54168,-5.35324 2.11497,-7.13511 1.57327,-1.78181 3.73017,-2.78435 6.47071,-3.0076 2.59527,-0.19324 4.50938,0.37054 5.74233,1.69134 1.2329,1.32086 1.94047,3.4327 2.1227,6.33554 l 1.67055,23.33999 8.04332,-0.5757 -1.68083,-23.48362 c -0.0623,-0.82713 -0.12412,-1.52348 -0.18561,-2.08905 -0.0616,-0.56552 -0.10417,-0.99256 -0.12779,-1.28113 -0.29642,-3.88868 -1.62116,-6.76541 -3.97422,-8.63018 -2.35314,-1.8647 -5.62174,-2.65335 -9.80581,-2.36595 -2.5593,0.19225 -4.7825,0.85665 -6.66963,1.99323 -1.88716,1.13665 -3.37926,2.68711 -4.47629,4.65138 l -1.33644,-18.67199 z"
           inkscape:connector-curvature="0" />
        <path
           id="path14343"
           style="font-size:72px;letter-spacing:2.5px;word-spacing:0px"
           d="m 402.40302,136.39211 -18.19668,-0.83363 c 0.40316,-3.13026 1.41517,-5.48938 3.03603,-7.07738 1.62083,-1.58793 3.80186,-2.32588 6.54309,-2.21385 2.85832,0.14449 5.03167,1.08192 6.52004,2.8123 1.48832,1.73043 2.18749,4.16795 2.09752,7.31256 z m 8.00433,6.20473 c 0.13,-1.00307 0.22078,-1.93588 0.27235,-2.79843 0.22375,-6.26172 -1.11996,-11.14926 -4.03115,-14.66266 -2.91126,-3.51333 -7.02269,-5.41045 -12.3343,-5.69136 -5.55389,-0.20484 -9.95943,1.36817 -13.21664,4.71903 -3.25723,3.35094 -5.05585,8.19663 -5.39587,14.53711 -0.23687,6.44884 1.10828,11.50163 4.03547,15.15837 2.92717,3.65674 7.0981,5.63166 12.5128,5.92477 4.45593,0.14557 8.24556,-0.89708 11.36892,-3.12795 3.12329,-2.23087 5.16866,-5.31745 6.13611,-9.25977 l -7.98352,-0.36573 c -0.61113,1.93304 -1.66955,3.40412 -3.17526,4.41325 -1.50576,1.00914 -3.34682,1.47136 -5.52317,1.38667 -3.00372,-0.15111 -5.29499,-1.20206 -6.87383,-3.15284 -1.57887,-1.95076 -2.33214,-4.7151 -2.25981,-8.293 z"
           inkscape:connector-curvature="0" />
        <path
           id="path14345"
           style="font-size:72px;letter-spacing:2.5px;word-spacing:0px"
           d="m 454.00904,113.4477 -11.76295,50.4132 8.41389,1.96321 4.62992,-19.84274 11.42886,2.66671 c 2.43405,0.59876 4.63704,0.94028 6.60899,1.02454 1.97186,0.0843 3.83246,-0.24554 5.58179,-0.98952 2.18639,-0.94075 4.01407,-2.34414 5.48303,-4.21016 1.46887,-1.86599 2.52294,-4.15225 3.1622,-6.85878 0.75544,-3.27082 0.80685,-6.19766 0.15423,-8.78053 -0.65271,-2.5828 -1.9779,-4.75881 -3.97557,-6.52805 -1.40728,-1.21705 -2.98556,-2.13673 -4.73486,-2.75904 -1.74938,-0.62223 -3.67532,-1.16095 -5.77782,-1.61615 z m 6.71243,9.25526 11.35874,2.65034 c 3.01713,0.68093 5.12148,1.8281 6.31305,3.4415 1.19149,1.61347 1.45706,3.82873 0.79671,6.64579 -0.69262,2.96826 -1.96541,4.85846 -3.81837,5.67062 -1.85304,0.81219 -4.35168,0.82681 -7.49595,0.0438 l -10.86793,-2.53583 z"
           inkscape:connector-curvature="0" />
        <path
           id="path14347"
           style="font-size:72px;letter-spacing:2.5px;word-spacing:0px"
           d="m 520.35287,145.78423 c -0.47844,-0.16786 -0.8603,-0.31203 -1.14559,-0.43252 -0.28536,-0.12042 -0.46299,-0.19427 -0.53289,-0.22155 -2.24652,-0.77823 -4.40305,-0.864 -6.46961,-0.25729 -2.06662,0.60677 -4.04355,1.93447 -5.93078,3.9831 l 2.17991,-6.33113 -7.14805,-2.46119 -12.35286,35.87641 7.55651,2.60183 6.72727,-19.53801 c 2.12911,-6.18361 6.25517,-8.21495 12.37819,-6.09403 l 2.0423,0.7032 z"
           inkscape:connector-curvature="0" />
        <path
           id="path14349"
           style="font-size:72px;letter-spacing:2.5px;word-spacing:0px"
           d="m 547.28864,174.89514 -16.59123,-7.51965 c 1.53481,-2.7578 3.34924,-4.5737 5.44328,-5.44771 2.094,-0.87397 4.39319,-0.75085 6.89759,0.36937 2.60112,1.19376 4.27212,2.87005 5.01302,5.02888 0.74082,2.15886 0.4866,4.68189 -0.76266,7.56911 z m 5.134,8.72984 c 0.49257,-0.88342 0.92267,-1.71612 1.29031,-2.4981 2.529,-5.73265 3.09281,-10.77009 1.69143,-15.11233 -1.40147,-4.34222 -4.51673,-7.62826 -9.34578,-9.85815 -5.08227,-2.24905 -9.75705,-2.42122 -14.02434,-0.51652 -4.26734,1.90476 -7.7341,5.73848 -10.40027,11.50118 -2.61055,5.90159 -3.23428,11.09303 -1.87118,15.57434 1.36309,4.4813 4.50477,7.86166 9.42504,10.14109 4.0845,1.78699 7.99065,2.22342 11.71845,1.30931 3.72774,-0.91415 6.77157,-3.02262 9.1315,-6.32543 l -7.27916,-3.29913 c -1.28416,1.56878 -2.81249,2.5427 -4.58501,2.92177 -1.77257,0.37907 -3.6538,0.12589 -5.6437,-0.75953 -2.7337,-1.25381 -4.47215,-3.07925 -5.21536,-5.47631 -0.74324,-2.39706 -0.41812,-5.24368 0.97536,-8.53986 z"
           inkscape:connector-curvature="0" />
        <path
           id="path14351"
           style="font-size:72px;letter-spacing:2.5px;word-spacing:0px"
           d="m 592.63866,195.18797 c 1.86143,-3.22447 2.17929,-6.47554 0.95359,-9.7532 -1.22579,-3.27764 -3.91915,-6.18092 -8.08008,-8.70988 -4.07891,-2.36157 -7.76505,-3.28651 -11.05844,-2.77483 -3.29343,0.51173 -5.86766,2.298 -7.72269,5.35883 -1.55443,2.6131 -1.90925,5.12707 -1.06448,7.54192 0.84475,2.41487 2.73461,5.02617 5.6696,7.83388 l 4.15633,4.14138 c 1.40036,1.33177 2.37183,2.53979 2.91443,3.62407 0.54254,1.08428 0.47945,2.20155 -0.18927,3.35182 -0.77669,1.28505 -1.9613,1.98785 -3.55384,2.10839 -1.59258,0.12054 -3.45308,-0.43601 -5.5815,-1.66962 -2.4157,-1.42854 -3.97086,-3.0109 -4.66548,-4.74709 -0.69464,-1.73618 -0.5227,-3.65401 0.51583,-5.75348 l -6.81065,-4.04227 c -2.18041,3.7207 -2.68145,7.29215 -1.5031,10.71434 1.17832,3.42218 3.99947,6.47458 8.46345,9.15719 4.56213,2.66412 8.62209,3.7586 12.17989,3.28346 3.55775,-0.47516 6.35919,-2.40915 8.40434,-5.80197 1.73602,-2.93089 2.14047,-5.61077 1.21336,-8.03964 -0.92718,-2.42887 -2.90862,-5.0387 -5.94432,-7.82948 l -3.59708,-3.39084 c -1.54674,-1.42907 -2.60045,-2.72776 -3.16115,-3.89609 -0.56074,-1.16829 -0.5025,-2.3303 0.17474,-3.48602 0.60301,-1.01307 1.56089,-1.57485 2.87364,-1.68532 1.31269,-0.11044 2.88983,0.36514 4.73142,1.42673 2.14071,1.27757 3.54582,2.68366 4.21534,4.21827 0.66945,1.53464 0.57525,3.13928 -0.28261,4.81394 z"
           inkscape:connector-curvature="0" />
        <path
           id="path14353"
           style="font-size:72px;letter-spacing:2.5px;word-spacing:0px"
           d="m 617.63478,182.34747 -4.69854,6.64203 6.58325,4.65695 4.69854,-6.64203 z m -7.98335,11.28557 -21.91264,30.97655 6.58325,4.65695 21.91264,-30.97655 z"
           inkscape:connector-curvature="0" />
        <path
           id="path14355"
           style="font-size:72px;letter-spacing:2.5px;word-spacing:0px"
           d="m 657.49054,213.54502 -11.97587,14.10559 c 0.21247,-2.41494 -0.11098,-4.62968 -0.97034,-6.64423 -0.85945,-2.01453 -2.26272,-3.84739 -4.2098,-5.49857 -3.652,-3.01988 -7.77379,-4.13058 -12.3654,-3.33213 -4.59166,0.79851 -8.98208,3.59185 -13.17129,8.38004 -3.94152,4.77225 -5.92907,9.46793 -5.96265,14.08707 -0.0336,4.61913 1.77052,8.51994 5.41235,11.70243 1.87268,1.59977 3.86179,2.63135 5.96734,3.09474 2.10551,0.46337 4.45264,0.4058 7.04139,-0.17271 l -3.21531,3.7871 5.87276,4.98606 33.50446,-39.46273 z m -20.29566,8.55314 c 2.50138,2.13162 3.7035,4.57684 3.60637,7.33566 -0.0972,2.75884 -1.51839,5.76306 -4.26355,9.01268 -2.85982,3.34516 -5.6782,5.32055 -8.45518,5.92617 -2.77702,0.6056 -5.40908,-0.14149 -7.89616,-2.24127 -2.34114,-2.01913 -3.4605,-4.44131 -3.3581,-7.26655 0.10237,-2.82523 1.47739,-5.82143 4.12505,-8.98859 2.83156,-3.28646 5.65431,-5.23454 8.46825,-5.84424 2.81388,-0.60967 5.40499,0.079 7.77332,2.06614 z"
           inkscape:connector-curvature="0" />
        <path
           id="path14357"
           style="font-size:72px;letter-spacing:2.5px;word-spacing:0px"
           d="m 672.00349,269.20083 -12.39794,-13.3456 c 2.48109,-1.95073 4.85619,-2.92466 7.12531,-2.9218 2.26906,0.003 4.34217,1.0047 6.21934,3.00548 1.93797,2.10598 2.83162,4.29769 2.68095,6.57514 -0.15074,2.27744 -1.35996,4.50637 -3.62766,6.68678 z m 1.36272,10.03549 c 0.79563,-0.62453 1.51404,-1.22641 2.15524,-1.80564 4.54737,-4.31051 7.01356,-8.73902 7.39855,-13.28553 0.3849,-4.54651 -1.21896,-8.78095 -4.81159,-12.70335 -3.81878,-4.03789 -8.06408,-6.00273 -12.73591,-5.89453 -4.67189,0.10824 -9.35059,2.30497 -14.0361,6.5902 -4.68786,4.43482 -7.2688,8.98222 -7.74283,13.6422 -0.47404,4.65998 1.11776,8.99163 4.77539,12.99496 3.07699,3.22623 6.51124,5.13787 10.30277,5.73491 3.79148,0.597 7.41355,-0.17182 10.86625,-2.30647 l -5.43941,-5.85519 c -1.79053,0.95086 -3.57647,1.25872 -5.35781,0.92357 -1.78139,-0.33518 -3.41875,-1.29549 -4.91208,-2.88093 -2.03705,-2.21259 -2.93529,-4.56792 -2.69473,-7.066 0.24054,-2.49809 1.64017,-4.99809 4.1989,-7.5 z"
           inkscape:connector-curvature="0" />
        <path
           id="path14359"
           style="font-size:72px;letter-spacing:2.5px;word-spacing:0px"
           d="m 705.92834,310.23691 c 3.96584,-2.76956 6.3975,-5.65309 7.29499,-8.6506 0.89738,-2.99753 -0.19121,-6.6036 -3.2658,-10.81824 -1.42353,-1.92666 -3.14104,-3.38671 -5.15252,-4.38018 -2.01156,-0.99344 -4.20438,-1.45785 -6.57846,-1.39323 l 4.12286,-3.02224 -4.59721,-6.27139 -30.60206,22.43264 4.76746,6.50367 17.76895,-13.02541 c 2.61417,-1.88098 5.11446,-2.64626 7.50087,-2.29584 2.38634,0.35043 4.47787,1.73718 6.27458,4.16024 1.31759,1.8127 1.83496,3.55364 1.55213,5.22283 -0.28292,1.66918 -1.35442,3.19112 -3.21451,4.56585 l -20.09168,14.72807 4.76747,6.50366 z"
           inkscape:connector-curvature="0" />
        <path
           id="path14361"
           style="font-size:72px;letter-spacing:2.5px;word-spacing:0px"
           d="m 734.4797,310.3383 -8.94656,5.38051 -2.78302,-4.62753 -5.12114,3.07988 2.78302,4.62753 -19.99093,12.02265 c -2.75911,1.59108 -4.44075,3.30606 -5.04491,5.14496 -0.60418,1.83889 -0.0503,4.16277 1.66179,6.97167 0.42981,0.70594 0.92448,1.44115 1.48401,2.20563 0.55952,0.76445 1.1654,1.57981 1.81764,2.44606 l 5.49134,-3.30252 -0.87805,-1.3203 c -0.13169,-0.21313 -0.27339,-0.42547 -0.42512,-0.63701 -0.15174,-0.21157 -0.30272,-0.43933 -0.45294,-0.68329 -0.68028,-1.10495 -0.90035,-1.97729 -0.66022,-2.61704 0.24011,-0.63977 0.90315,-1.26607 1.98914,-1.87891 l 19.12712,-11.50316 3.26542,5.42964 5.12113,-3.07988 -3.26541,-5.42963 8.94656,-5.38051 z"
           inkscape:connector-curvature="0" />
      </g>
      <path
         d="m -2717.8367,1179.8342 c 3.4967,0.3524 6.4505,-0.4492 8.8614,-2.4047 2.4109,-1.9556 4.028,-4.9264 4.8514,-8.9125 0.9202,-4.8698 0.1564,-8.9395 -2.2915,-12.2092 -2.4479,-3.2696 -6.3935,-5.4613 -11.8368,-6.575 -5.4003,-1.019 -9.8611,-0.5087 -13.3825,1.5307 -3.5214,2.0395 -5.7679,5.3979 -6.7394,10.0753 -0.7404,4.0877 -0.2172,7.6277 1.5698,10.62 1.787,2.9922 4.5377,4.96 8.2522,5.9033 l 1.045,-5.299 c -2.3191,-0.6819 -4.0139,-1.9199 -5.0844,-3.7141 -1.0704,-1.7943 -1.3824,-3.9006 -0.9358,-6.3191 0.6199,-2.994 2.183,-5.1344 4.6895,-6.4212 2.5064,-1.2868 5.7472,-1.5554 9.7223,-0.8058 3.8492,0.7768 6.6539,2.2122 8.4142,4.3062 1.7603,2.0939 2.3433,4.7145 1.7491,7.8616 -0.4752,2.3451 -1.3883,4.1216 -2.7391,5.3296 -1.3508,1.2079 -3.0479,1.7711 -5.0914,1.6896 z"
         style="font-size:66px;font-style:normal;font-variant:normal;font-weight:normal;font-stretch:normal;text-align:center;line-height:0%;letter-spacing:5px;word-spacing:0px;writing-mode:lr-tb;text-anchor:middle;fill:#000000;fill-opacity:1;stroke:none;font-family:Swiss 721;-inkscape-font-specification:'Swiss 721,'"
         id="path14364"
         inkscape:connector-curvature="0" />
      <path
         d="m -2708.2876,1201.0454 c 0.2724,-4.9582 -1.0245,-8.9328 -3.8906,-11.9238 -2.8662,-2.9909 -7.0499,-4.6873 -12.551,-5.089 -5.5074,-0.3038 -9.8733,0.8447 -13.0978,3.4453 -3.2245,2.6006 -5.0181,6.3771 -5.3808,11.3295 -0.2696,4.9584 1.033,8.9333 3.9078,11.9249 2.8748,2.9914 7.0527,4.6874 12.5337,5.0878 5.4872,0.3025 9.8474,-0.8463 13.0806,-3.4463 3.2331,-2.6001 5.0325,-6.3763 5.3981,-11.3284 z m -4.7912,-0.3071 c -0.2268,3.2081 -1.4855,5.6446 -3.7759,7.3096 -2.2905,1.665 -5.4743,2.3823 -9.5514,2.1518 -4.0531,-0.2906 -7.1135,-1.408 -9.1813,-3.3523 -2.0679,-1.9443 -3.011,-4.5219 -2.8293,-7.7329 0.2297,-3.2079 1.4941,-5.6441 3.7932,-7.3085 2.2991,-1.6645 5.4772,-2.3821 9.5342,-2.153 4.073,0.2948 7.1388,1.4184 9.1974,3.3707 2.0587,1.9524 2.9963,4.5239 2.8131,7.7146 z"
         style="font-size:66px;font-style:normal;font-variant:normal;font-weight:normal;font-stretch:normal;text-align:center;line-height:0%;letter-spacing:5px;word-spacing:0px;writing-mode:lr-tb;text-anchor:middle;fill:#000000;fill-opacity:1;stroke:none;font-family:Swiss 721;-inkscape-font-specification:'Swiss 721,'"
         id="path14366"
         inkscape:connector-curvature="0" />
      <path
         d="m -2708.1704,1235.9125 c -0.3944,-4.9499 -2.2122,-8.7149 -5.4533,-11.2948 -3.2411,-2.5799 -7.6143,-3.7003 -13.1197,-3.3612 -5.4984,0.4369 -9.6711,2.16 -12.518,5.1693 -2.847,3.0092 -4.1183,6.992 -3.8141,11.9484 0.3973,4.9497 2.2208,8.7142 5.4705,11.2936 3.2498,2.5793 7.6172,3.7001 13.1024,3.3624 5.4783,-0.4355 9.6452,-2.1582 12.5008,-5.1681 2.8556,-3.0099 4.1327,-6.9931 3.8314,-11.9496 z m -4.7891,0.3378 c 0.2051,3.2095 -0.7157,5.7928 -2.7623,7.7497 -2.0468,1.9568 -5.1057,3.0943 -9.177,3.4123 -4.0554,0.2551 -7.238,-0.4422 -9.5477,-2.0918 -2.3097,-1.6497 -3.5897,-4.0777 -3.8399,-7.2841 -0.2023,-3.2098 0.7242,-5.7934 2.7796,-7.7509 2.0553,-1.9575 5.1085,-3.0945 9.1596,-3.4111 4.0758,-0.2537 7.2645,0.4489 9.5663,2.1078 2.3016,1.6589 3.5754,4.0816 3.8214,7.2681 z"
         style="font-size:66px;font-style:normal;font-variant:normal;font-weight:normal;font-stretch:normal;text-align:center;line-height:0%;letter-spacing:5px;word-spacing:0px;writing-mode:lr-tb;text-anchor:middle;fill:#000000;fill-opacity:1;stroke:none;font-family:Swiss 721;-inkscape-font-specification:'Swiss 721,'"
         id="path14368"
         inkscape:connector-curvature="0" />
      <path
         d="m -2706.9887,1256.7704 -32.5706,6.3895 1.0664,5.436 12.8199,-2.5149 1.4485,7.3839 c 0.2905,1.5807 0.6705,2.9586 1.1402,4.1337 0.4697,1.175 1.1521,2.1761 2.0475,3.0031 1.1254,1.0307 2.4269,1.73 3.9045,2.0978 1.4775,0.3677 3.0916,0.3823 4.8423,0.044 2.1111,-0.4191 3.8359,-1.1593 5.1743,-2.2206 1.3383,-1.0613 2.2618,-2.4087 2.7705,-4.0423 0.3412,-1.1431 0.4636,-2.3079 0.3671,-3.4944 -0.097,-1.1866 -0.2885,-2.4544 -0.5756,-3.8035 z m -3.6448,6.3602 1.4397,7.3386 c 0.3959,1.9432 0.2789,3.4755 -0.3508,4.5967 -0.6298,1.1213 -1.8551,1.8595 -3.6759,2.2148 -1.9177,0.3762 -3.3578,0.1294 -4.3203,-0.7402 -0.9625,-0.8697 -1.6286,-2.3267 -1.9983,-4.3711 l -1.3774,-7.0215 z"
         style="font-size:66px;font-style:normal;font-variant:normal;font-weight:normal;font-stretch:normal;text-align:center;line-height:0%;letter-spacing:5px;word-spacing:0px;writing-mode:lr-tb;text-anchor:middle;fill:#000000;fill-opacity:1;stroke:none;font-family:Swiss 721;-inkscape-font-specification:'Swiss 721,'"
         id="path14370"
         inkscape:connector-curvature="0" />
      <path
         d="m -2700.9079,1285.764 -31.6489,10.001 7.3581,23.2855 4.7539,-1.5023 -5.7168,-18.0913 9.5519,-3.0184 5.1048,16.1546 4.4458,-1.4049 -5.1048,-16.1546 8.2754,-2.6149 5.536,17.5191 4.6219,-1.4605 z"
         style="font-size:66px;font-style:normal;font-variant:normal;font-weight:normal;font-stretch:normal;text-align:center;line-height:0%;letter-spacing:5px;word-spacing:0px;writing-mode:lr-tb;text-anchor:middle;fill:#000000;fill-opacity:1;stroke:none;font-family:Swiss 721;-inkscape-font-specification:'Swiss 721,'"
         id="path14372"
         inkscape:connector-curvature="0" />
      <path
         d="m -2691.7216,1313.7342 -30.2879,13.5763 2.247,5.0128 12.469,-5.5891 3.4177,7.6247 c 0.8653,1.9423 1.0264,3.4067 0.4832,4.3933 -0.5433,0.9865 -1.6016,1.8466 -3.175,2.5804 l -3.5473,1.7923 c -0.7844,0.3896 -1.4863,0.7801 -2.1055,1.1715 -0.6192,0.3913 -1.1381,0.8515 -1.5565,1.3806 l 2.5302,5.6447 0.8847,-0.3965 c 0.067,-0.6847 0.3543,-1.2244 0.8614,-1.6192 0.507,-0.3949 1.1965,-0.7988 2.0685,-1.2118 l 4.2256,-2.1976 c 1.6118,-0.7773 2.7981,-1.6294 3.5588,-2.5564 0.7607,-0.927 1.0551,-2.1887 0.8833,-3.7853 1.1559,1.1375 2.5058,1.8119 4.0497,2.0231 1.5438,0.2112 3.1872,-0.068 4.93,-0.8376 2.6438,-1.2145 4.3647,-2.9007 5.1628,-5.0586 0.7981,-2.1578 0.6078,-4.5809 -0.5708,-7.2692 -0.036,-0.086 -0.1089,-0.2663 -0.2173,-0.5413 -0.1086,-0.2749 -0.2612,-0.6343 -0.4581,-1.0783 z m -2.0265,6.8779 3.2855,7.3297 c 0.8792,1.8887 1.1977,3.4786 0.9554,4.7697 -0.2423,1.2911 -1.2227,2.325 -2.9413,3.1017 -1.7447,0.7821 -3.1952,0.8378 -4.3516,0.1673 -1.1563,-0.6705 -2.1659,-2.0012 -3.0288,-3.9921 l -3.2288,-7.2034 z"
         style="font-size:66px;font-style:normal;font-variant:normal;font-weight:normal;font-stretch:normal;text-align:center;line-height:0%;letter-spacing:5px;word-spacing:0px;writing-mode:lr-tb;text-anchor:middle;fill:#000000;fill-opacity:1;stroke:none;font-family:Swiss 721;-inkscape-font-specification:'Swiss 721,'"
         id="path14374"
         inkscape:connector-curvature="0" />
      <path
         d="m -2674.1631,1349.4402 -34.7235,6.5844 2.9572,4.955 8.9109,-1.8236 6.6241,11.0993 -5.8591,6.9373 3.0282,5.074 22.256,-27.4749 z m -3.2115,5.5185 -9.8364,11.6227 -5.0628,-8.4831 z"
         style="font-size:66px;font-style:normal;font-variant:normal;font-weight:normal;font-stretch:normal;text-align:center;line-height:0%;letter-spacing:5px;word-spacing:0px;writing-mode:lr-tb;text-anchor:middle;fill:#000000;fill-opacity:1;stroke:none;font-family:Swiss 721;-inkscape-font-specification:'Swiss 721,'"
         id="path14376"
         inkscape:connector-curvature="0" />
      <path
         d="m -2664.486,1365.3891 -3.8676,2.9218 6.1776,8.1771 -22.6159,17.0857 3.3114,4.3832 22.6159,-17.0857 6.1497,8.1403 3.8676,-2.9219 z"
         style="font-size:66px;font-style:normal;font-variant:normal;font-weight:normal;font-stretch:normal;text-align:center;line-height:0%;letter-spacing:5px;word-spacing:0px;writing-mode:lr-tb;text-anchor:middle;fill:#000000;fill-opacity:1;stroke:none;font-family:Swiss 721;-inkscape-font-specification:'Swiss 721,'"
         id="path14378"
         inkscape:connector-curvature="0" />
      <path
         d="m -2645.409,1389.6465 -24.81,22.0485 3.6799,4.1408 24.81,-22.0486 z"
         style="font-size:66px;font-style:normal;font-variant:normal;font-weight:normal;font-stretch:normal;text-align:center;line-height:0%;letter-spacing:5px;word-spacing:0px;writing-mode:lr-tb;text-anchor:middle;fill:#000000;fill-opacity:1;stroke:none;font-family:Swiss 721;-inkscape-font-specification:'Swiss 721,'"
         id="path14380"
         inkscape:connector-curvature="0" />
      <path
         d="m -2639.0341,1397.2688 -14.4853,32.0496 4.0092,3.8228 31.2237,-16.0896 -4.2764,-4.0776 -24.3328,13.4113 12.1715,-25.007 z"
         style="font-size:66px;font-style:normal;font-variant:normal;font-weight:normal;font-stretch:normal;text-align:center;line-height:0%;letter-spacing:5px;word-spacing:0px;writing-mode:lr-tb;text-anchor:middle;fill:#000000;fill-opacity:1;stroke:none;font-family:Swiss 721;-inkscape-font-specification:'Swiss 721,'"
         id="path14382"
         inkscape:connector-curvature="0" />
      <path
         d="m -2615.7057,1419.0332 -20.092,26.4194 19.4379,14.7826 3.018,-3.9685 -15.102,-11.4851 6.0639,-7.9736 13.4853,10.2556 2.8224,-3.7112 -13.4853,-10.2556 5.2535,-6.908 14.6244,11.1219 2.9341,-3.8582 z"
         style="font-size:66px;font-style:normal;font-variant:normal;font-weight:normal;font-stretch:normal;text-align:center;line-height:0%;letter-spacing:5px;word-spacing:0px;writing-mode:lr-tb;text-anchor:middle;fill:#000000;fill-opacity:1;stroke:none;font-family:Swiss 721;-inkscape-font-specification:'Swiss 721,'"
         id="path14384"
         inkscape:connector-curvature="0" />
      <path
         d="m -2579.8335,1444.1799 -15.2437,29.4839 10.5797,5.4699 c 4.5185,2.3026 8.6112,2.7837 12.2782,1.4435 3.667,-1.3402 6.739,-4.3879 9.216,-9.1432 2.5128,-4.8623 3.3174,-9.0779 2.4138,-12.647 -0.9037,-3.569 -3.5184,-6.4734 -7.8441,-8.7132 z m 2.6763,6.6844 6.356,3.2862 c 2.6879,1.3995 4.2784,3.3196 4.7715,5.7604 0.493,2.4409 -0.1234,5.3377 -1.8492,8.6906 -1.8833,3.6634 -3.9772,6.0129 -6.2816,7.0485 -2.3046,1.0356 -4.9054,0.7974 -7.8026,-0.7146 l -6.028,-3.1166 z"
         style="font-size:66px;font-style:normal;font-variant:normal;font-weight:normal;font-stretch:normal;text-align:center;line-height:0%;letter-spacing:5px;word-spacing:0px;writing-mode:lr-tb;text-anchor:middle;fill:#000000;fill-opacity:1;stroke:none;font-family:Swiss 721;-inkscape-font-specification:'Swiss 721,'"
         id="path14386"
         inkscape:connector-curvature="0" />
      <path
         d="m -2550.5541,1458.7765 -11.6985,31.0615 22.8532,8.6072 1.7573,-4.6657 -17.7556,-6.6873 3.5307,-9.3746 15.8548,5.9714 1.6433,-4.3633 -15.8548,-5.9714 3.0589,-8.1217 17.194,6.4757 1.7084,-4.5361 z"
         style="font-size:66px;font-style:normal;font-variant:normal;font-weight:normal;font-stretch:normal;text-align:center;line-height:0%;letter-spacing:5px;word-spacing:0px;writing-mode:lr-tb;text-anchor:middle;fill:#000000;fill-opacity:1;stroke:none;font-family:Swiss 721;-inkscape-font-specification:'Swiss 721,'"
         id="path14388"
         inkscape:connector-curvature="0" />
      <path
         d="m -2526.2149,1467.9304 3.0795,35.0359 5.3682,1.3675 19.3325,-29.3266 -5.726,-1.4587 -14.6382,23.6151 -1.6452,-27.7632 z"
         style="font-size:66px;font-style:normal;font-variant:normal;font-weight:normal;font-stretch:normal;text-align:center;line-height:0%;letter-spacing:5px;word-spacing:0px;writing-mode:lr-tb;text-anchor:middle;fill:#000000;fill-opacity:1;stroke:none;font-family:Swiss 721;-inkscape-font-specification:'Swiss 721,'"
         id="path14390"
         inkscape:connector-curvature="0" />
      <path
         d="m -2495.2155,1475.4717 -4.5658,32.8759 24.1882,3.3593 0.6859,-4.9382 -18.7928,-2.61 1.378,-9.9222 16.7809,2.3305 0.6414,-4.6181 -16.7809,-2.3306 1.1939,-8.5962 18.1983,2.5274 0.6668,-4.801 z"
         style="font-size:66px;font-style:normal;font-variant:normal;font-weight:normal;font-stretch:normal;text-align:center;line-height:0%;letter-spacing:5px;word-spacing:0px;writing-mode:lr-tb;text-anchor:middle;fill:#000000;fill-opacity:1;stroke:none;font-family:Swiss 721;-inkscape-font-specification:'Swiss 721,'"
         id="path14392"
         inkscape:connector-curvature="0" />
      <path
         d="m -2465.714,1479.0808 -1.046,33.175 21.9167,0.691 0.1586,-5.0293 -16.3798,-0.5165 0.8874,-28.1456 z"
         style="font-size:66px;font-style:normal;font-variant:normal;font-weight:normal;font-stretch:normal;text-align:center;line-height:0%;letter-spacing:5px;word-spacing:0px;writing-mode:lr-tb;text-anchor:middle;fill:#000000;fill-opacity:1;stroke:none;font-family:Swiss 721;-inkscape-font-specification:'Swiss 721,'"
         id="path14394"
         inkscape:connector-curvature="0" />
      <path
         d="m -2426.0934,1477.6816 c -4.9437,0.4672 -8.6815,2.3401 -11.2134,5.6188 -2.532,3.2787 -3.588,7.6679 -3.168,13.1677 0.5177,5.4914 2.302,9.6383 5.3528,12.4407 3.0508,2.8024 7.0519,4.015 12.0032,3.6379 4.9434,-0.47 8.6807,-2.3486 11.2119,-5.636 2.5313,-3.2873 3.5877,-7.6708 3.1695,-13.1504 -0.5161,-5.4713 -2.2998,-9.6124 -5.3514,-12.4235 -3.0515,-2.811 -7.0531,-4.0294 -12.0046,-3.6552 z m 0.4081,4.7836 c 3.2062,-0.2523 5.8027,0.6304 7.7895,2.6481 1.9867,2.0177 3.169,5.0596 3.5469,9.1257 0.3147,4.0513 -0.3357,7.2438 -1.9512,9.5775 -1.6155,2.3337 -4.0245,3.6493 -7.2268,3.9466 -3.2065,0.2495 -5.8035,-0.639 -7.791,-2.6653 -1.9875,-2.0263 -3.1693,-5.0625 -3.5454,-9.1085 -0.3136,-4.0716 0.3421,-7.2703 1.967,-9.5962 1.6248,-2.3258 4.0285,-3.6351 7.211,-3.9279 z"
         style="font-size:66px;font-style:normal;font-variant:normal;font-weight:normal;font-stretch:normal;text-align:center;line-height:0%;letter-spacing:5px;word-spacing:0px;writing-mode:lr-tb;text-anchor:middle;fill:#000000;fill-opacity:1;stroke:none;font-family:Swiss 721;-inkscape-font-specification:'Swiss 721,'"
         id="path14396"
         inkscape:connector-curvature="0" />
      <path
         d="m -2405.2527,1476.1934 6.8654,32.4736 5.4198,-1.1458 -2.7022,-12.7817 7.3619,-1.5564 c 1.5762,-0.3136 2.9484,-0.7138 4.1165,-1.2006 1.1681,-0.4868 2.159,-1.1839 2.9728,-2.0912 1.0142,-1.1404 1.6944,-2.452 2.0405,-3.9348 0.3461,-1.4827 0.3371,-3.0969 -0.027,-4.8424 -0.45,-2.1048 -1.2153,-3.8185 -2.2961,-5.1412 -1.0808,-1.3227 -2.4416,-2.2264 -4.0824,-2.7111 -1.148,-0.3245 -2.3144,-0.4298 -3.4994,-0.3159 -1.185,0.1139 -2.4499,0.3243 -3.7946,0.6312 z m 6.4128,3.5513 7.3168,-1.5469 c 1.9372,-0.4242 3.471,-0.3297 4.6013,0.2835 1.1304,0.6133 1.8865,1.8277 2.2683,3.6431 0.4042,1.912 0.1786,3.3556 -0.6769,4.3307 -0.8555,0.9751 -2.3026,1.6625 -4.3414,2.062 l -7.0005,1.4801 z"
         style="font-size:66px;font-style:normal;font-variant:normal;font-weight:normal;font-stretch:normal;text-align:center;line-height:0%;letter-spacing:5px;word-spacing:0px;writing-mode:lr-tb;text-anchor:middle;fill:#000000;fill-opacity:1;stroke:none;font-family:Swiss 721;-inkscape-font-specification:'Swiss 721,'"
         id="path14398"
         inkscape:connector-curvature="0" />
      <path
         d="m -2376.7768,1470.0634 10.9586,31.3302 4.8368,-1.6918 -9.0535,-25.8833 16.7227,23.2008 5.0982,-1.7833 -1.2972,-28.5963 9.0535,25.8833 4.9675,-1.7375 -10.9587,-31.3302 -7.582,2.6521 1.1384,27.7226 -16.3023,-22.4186 z"
         style="font-size:66px;font-style:normal;font-variant:normal;font-weight:normal;font-stretch:normal;text-align:center;line-height:0%;letter-spacing:5px;word-spacing:0px;writing-mode:lr-tb;text-anchor:middle;fill:#000000;fill-opacity:1;stroke:none;font-family:Swiss 721;-inkscape-font-specification:'Swiss 721,'"
         id="path14400"
         inkscape:connector-curvature="0" />
      <path
         d="m -2340.7795,1456.7298 14.8684,29.6749 21.8332,-10.9393 -2.2334,-4.4575 -16.963,8.4992 -4.4874,-8.9561 15.147,-7.5893 -2.0886,-4.1685 -15.147,7.5892 -3.8877,-7.7592 16.4265,-8.2303 -2.1713,-4.3337 z"
         style="font-size:66px;font-style:normal;font-variant:normal;font-weight:normal;font-stretch:normal;text-align:center;line-height:0%;letter-spacing:5px;word-spacing:0px;writing-mode:lr-tb;text-anchor:middle;fill:#000000;fill-opacity:1;stroke:none;font-family:Swiss 721;-inkscape-font-specification:'Swiss 721,'"
         id="path14402"
         inkscape:connector-curvature="0" />
      <path
         d="m -2314.6946,1443.356 18.2949,27.6942 4.4295,-2.9261 -13.6894,-20.7225 26.6699,12.1475 4.8532,-3.206 -18.2949,-27.6942 -4.4681,2.9516 13.6894,20.7225 -26.5928,-12.1985 z"
         style="font-size:66px;font-style:normal;font-variant:normal;font-weight:normal;font-stretch:normal;text-align:center;line-height:0%;letter-spacing:5px;word-spacing:0px;writing-mode:lr-tb;text-anchor:middle;fill:#000000;fill-opacity:1;stroke:none;font-family:Swiss 721;-inkscape-font-specification:'Swiss 721,'"
         id="path14404"
         inkscape:connector-curvature="0" />
      <path
         d="m -2289.5103,1426.4457 3.1175,3.7116 7.8474,-6.5913 18.2301,21.704 4.2065,-3.5332 -18.2301,-21.704 7.812,-6.5616 -3.1175,-3.7116 z"
         style="font-size:66px;font-style:normal;font-variant:normal;font-weight:normal;font-stretch:normal;text-align:center;line-height:0%;letter-spacing:5px;word-spacing:0px;writing-mode:lr-tb;text-anchor:middle;fill:#000000;fill-opacity:1;stroke:none;font-family:Swiss 721;-inkscape-font-specification:'Swiss 721,'"
         id="path14406"
         inkscape:connector-curvature="0" />
      <path
         d="m -2251.1961,1390.3224 17.3533,30.7886 3.7477,-4.3878 -4.5802,-7.8582 8.3948,-9.8286 8.4478,3.33 3.8377,-4.493 -33.1536,-12.2898 z m 6.2561,1.2759 14.1599,5.5983 -6.416,7.5119 z"
         style="font-size:66px;font-style:normal;font-variant:normal;font-weight:normal;font-stretch:normal;text-align:center;line-height:0%;letter-spacing:5px;word-spacing:0px;writing-mode:lr-tb;text-anchor:middle;fill:#000000;fill-opacity:1;stroke:none;font-family:Swiss 721;-inkscape-font-specification:'Swiss 721,'"
         id="path14408"
         inkscape:connector-curvature="0" />
      <path
         d="m -2237.6523,1374.0049 17.4478,11.6112 c 3.6211,2.4017 6.9624,3.2968 10.0241,2.6853 3.0616,-0.6115 5.7923,-2.7151 8.1922,-6.3108 2.2945,-3.474 3.1448,-6.7828 2.5509,-9.9264 -0.594,-3.1435 -2.6656,-5.9153 -6.2149,-8.3155 l -17.4478,-11.6112 -3.069,4.6118 17.1788,11.4321 c 2.3491,1.5495 3.762,3.2245 4.2388,5.0251 0.4768,1.8006 -0.011,3.7909 -1.4643,5.9708 -1.4487,2.1804 -3.0919,3.3928 -4.9295,3.637 -1.8376,0.2443 -3.9241,-0.4187 -6.2593,-1.989 l -17.1788,-11.4321 z"
         style="font-size:66px;font-style:normal;font-variant:normal;font-weight:normal;font-stretch:normal;text-align:center;line-height:0%;letter-spacing:5px;word-spacing:0px;writing-mode:lr-tb;text-anchor:middle;fill:#000000;fill-opacity:1;stroke:none;font-family:Swiss 721;-inkscape-font-specification:'Swiss 721,'"
         id="path14410"
         inkscape:connector-curvature="0" />
      <path
         d="m -2221.3251,1349.0853 4.3108,2.2164 4.686,-9.1142 25.2077,12.9605 2.5118,-4.8856 -25.2076,-12.9604 4.6649,-9.0731 -4.3107,-2.2164 z"
         style="font-size:66px;font-style:normal;font-variant:normal;font-weight:normal;font-stretch:normal;text-align:center;line-height:0%;letter-spacing:5px;word-spacing:0px;writing-mode:lr-tb;text-anchor:middle;fill:#000000;fill-opacity:1;stroke:none;font-family:Swiss 721;-inkscape-font-specification:'Swiss 721,'"
         id="path14412"
         inkscape:connector-curvature="0" />
      <path
         d="m -2207.9484,1322.6774 31.0552,11.7153 1.9553,-5.1831 -14.2103,-5.3606 5.5399,-14.6854 14.2103,5.3607 1.9552,-5.1831 -31.0552,-11.7152 -1.9552,5.183 12.2234,4.6112 -5.5399,14.6853 -12.2234,-4.6111 z"
         style="font-size:66px;font-style:normal;font-variant:normal;font-weight:normal;font-stretch:normal;text-align:center;line-height:0%;letter-spacing:5px;word-spacing:0px;writing-mode:lr-tb;text-anchor:middle;fill:#000000;fill-opacity:1;stroke:none;font-family:Swiss 721;-inkscape-font-specification:'Swiss 721,'"
         id="path14414"
         inkscape:connector-curvature="0" />
      <path
         d="m -2194.1536,1277.3611 c -1.09,4.8446 -0.4695,8.9791 1.8615,12.4035 2.3311,3.4245 6.1759,5.7905 11.5345,7.0979 5.381,1.212 9.8769,0.8027 13.4876,-1.2278 3.6108,-2.0305 6.0053,-5.4577 7.1834,-10.2816 1.0872,-4.8451 0.4611,-8.9809 -1.8784,-12.4074 -2.3395,-3.4264 -6.1787,-5.7911 -11.5176,-7.094 -5.3613,-1.2073 -9.8515,-0.7967 -13.4708,1.2318 -3.6192,2.0286 -6.0192,5.4545 -7.2002,10.2776 z m 4.6741,1.0966 c 0.7552,-3.1262 2.4001,-5.3206 4.9347,-6.5831 2.5347,-1.2625 5.7933,-1.4425 9.7759,-0.5398 3.9489,0.9581 6.7819,2.567 8.4991,4.827 1.7172,2.26 2.2202,4.9583 1.5091,8.0948 -0.758,3.1256 -2.4085,5.3186 -4.9515,6.5792 -2.5431,1.2605 -5.7961,1.4418 -9.7591,0.5437 -3.9679,-0.9655 -6.8052,-2.5814 -8.512,-4.8478 -1.7067,-2.2665 -2.2055,-4.9578 -1.4962,-8.074 z"
         style="font-size:66px;font-style:normal;font-variant:normal;font-weight:normal;font-stretch:normal;text-align:center;line-height:0%;letter-spacing:5px;word-spacing:0px;writing-mode:lr-tb;text-anchor:middle;fill:#000000;fill-opacity:1;stroke:none;font-family:Swiss 721;-inkscape-font-specification:'Swiss 721,'"
         id="path14416"
         inkscape:connector-curvature="0" />
      <path
         d="m -2189.0762,1257.2015 33.0126,3.441 0.5695,-5.4639 -13.5907,-1.4166 0.8662,-8.3105 c 0.2253,-2.1144 0.8202,-3.4622 1.7849,-4.0434 0.9647,-0.5811 2.3116,-0.7946 4.0409,-0.6405 l 3.9678,0.2279 c 0.874,0.056 1.6771,0.07 2.4091,0.042 0.732,-0.028 1.4116,-0.1661 2.0389,-0.4141 l 0.6413,-6.1525 -0.9642,-0.1005 c -0.4015,0.5586 -0.9206,0.8816 -1.5572,0.969 -0.6367,0.087 -1.4358,0.091 -2.3973,0.011 l -4.7579,-0.2174 c -1.7844,-0.1357 -3.238,0.01 -4.361,0.4273 -1.1229,0.4206 -2.0104,1.3646 -2.6623,2.8322 -0.4297,-1.5639 -1.2595,-2.8242 -2.4893,-3.7811 -1.2298,-0.9569 -2.7916,-1.5393 -4.6855,-1.7474 -2.8963,-0.2748 -5.2308,0.3212 -7.0033,1.788 -1.7725,1.4668 -2.8229,3.6587 -3.1511,6.5755 -0.011,0.093 -0.039,0.2851 -0.083,0.5773 -0.044,0.2923 -0.092,0.6799 -0.1444,1.1627 z m 5.2021,-4.9346 0.8327,-7.9891 c 0.1864,-2.075 0.708,-3.6103 1.565,-4.6059 0.8571,-0.9955 2.2238,-1.3984 4.1002,-1.2087 1.9016,0.1983 3.1846,0.8773 3.8488,2.0373 0.6643,1.1599 0.8705,2.8175 0.6188,4.9727 l -0.8184,7.8514 z"
         style="font-size:66px;font-style:normal;font-variant:normal;font-weight:normal;font-stretch:normal;text-align:center;line-height:0%;letter-spacing:5px;word-spacing:0px;writing-mode:lr-tb;text-anchor:middle;fill:#000000;fill-opacity:1;stroke:none;font-family:Swiss 721;-inkscape-font-specification:'Swiss 721,'"
         id="path14418"
         inkscape:connector-curvature="0" />
      <path
         d="m -2186.4709,1224.9325 33.1869,0.5474 0.091,-5.5388 -33.1869,-0.5474 z"
         style="font-size:66px;font-style:normal;font-variant:normal;font-weight:normal;font-stretch:normal;text-align:center;line-height:0%;letter-spacing:5px;word-spacing:0px;writing-mode:lr-tb;text-anchor:middle;fill:#000000;fill-opacity:1;stroke:none;font-family:Swiss 721;-inkscape-font-specification:'Swiss 721,'"
         id="path14420"
         inkscape:connector-curvature="0" />
      <path
         d="m -2186.0902,1214.3847 4.8376,-0.3033 -0.6412,-10.2282 28.2888,-1.7735 -0.3438,-5.4827 -28.2887,1.7735 -0.6384,-10.1821 -4.8376,0.3033 z"
         style="font-size:66px;font-style:normal;font-variant:normal;font-weight:normal;font-stretch:normal;text-align:center;line-height:0%;letter-spacing:5px;word-spacing:0px;writing-mode:lr-tb;text-anchor:middle;fill:#000000;fill-opacity:1;stroke:none;font-family:Swiss 721;-inkscape-font-specification:'Swiss 721,'"
         id="path14422"
         inkscape:connector-curvature="0" />
      <path
         d="m -2187.6209,1184.3399 17.9842,-15.4529 12.6988,-2.1504 -0.9249,-5.4619 -12.9264,2.189 -21.7029,-7.8895 1.0636,6.2812 16.1938,5.2172 -13.5269,10.5311 z"
         style="font-size:66px;font-style:normal;font-variant:normal;font-weight:normal;font-stretch:normal;text-align:center;line-height:0%;letter-spacing:5px;word-spacing:0px;writing-mode:lr-tb;text-anchor:middle;fill:#000000;fill-opacity:1;stroke:none;font-family:Swiss 721;-inkscape-font-specification:'Swiss 721,'"
         id="path14424"
         inkscape:connector-curvature="0" />
    </g>
  </g>
</svg>
